<?xml version="1.0" encoding="UTF-8" standalone="no"?>
<!-- Created with Inkscape (http://www.inkscape.org/) -->

<svg
   xmlns:dc="http://purl.org/dc/elements/1.1/"
   xmlns:cc="http://creativecommons.org/ns#"
   xmlns:rdf="http://www.w3.org/1999/02/22-rdf-syntax-ns#"
   xmlns:svg="http://www.w3.org/2000/svg"
   xmlns="http://www.w3.org/2000/svg"
   xmlns:sodipodi="http://sodipodi.sourceforge.net/DTD/sodipodi-0.dtd"
   xmlns:inkscape="http://www.inkscape.org/namespaces/inkscape"
   width="16"
   height="16"
   id="svg3352"
   version="1.1"
   inkscape:version="0.91 r13725"
   viewBox="0 0 16 16"
   sodipodi:docname="empty.svg"
   inkscape:export-filename="/home/bhacaz/Dropbox/Ulaval/H-16/SPTR/SPTR/src/main/java/sptr/res/empty.png"
   inkscape:export-xdpi="140.625"
   inkscape:export-ydpi="140.625">
  <defs
     id="defs3354" />
  <sodipodi:namedview
     id="base"
     pagecolor="#ffffff"
     bordercolor="#666666"
     borderopacity="1.0"
     inkscape:pageopacity="0.0"
     inkscape:pageshadow="2"
     inkscape:zoom="22.627417"
     inkscape:cx="-8.4816131"
     inkscape:cy="8.5254127"
     inkscape:current-layer="layer1"
     showgrid="true"
     inkscape:grid-bbox="true"
     inkscape:document-units="px"
     showguides="false"
     inkscape:window-width="1600"
     inkscape:window-height="838"
     inkscape:window-x="0"
     inkscape:window-y="0"
     inkscape:window-maximized="1" />
  <metadata
     id="metadata3357">
    <rdf:RDF>
      <cc:Work
         rdf:about="">
        <dc:format>image/svg+xml</dc:format>
        <dc:type
           rdf:resource="http://purl.org/dc/dcmitype/StillImage" />
        <dc:title />
      </cc:Work>
    </rdf:RDF>
  </metadata>
  <g
     id="layer1"
     inkscape:label="Layer 1"
     inkscape:groupmode="layer">
    <rect
       style="fill:#1a1a1a"
       id="rect3362"
       width="16"
       height="16"
       x="0"
       y="-16"
       transform="scale(1,-1)" />
    <path
       style="fill:#4d4d4d"
       d="m 0.0027552,8.0043361 0,-7.97963004 7.9955575,0 7.9955573,0 0,7.97963004 0,7.9796299 -7.9955573,0 -7.9955575,0 0,-7.9796299 z"
       id="path3366"
       inkscape:connector-curvature="0" />
    <path
       style="fill:#005500"
       d="m -0.01400941,8.0049174 0,-7.95495128 7.99914541,0 7.999145,0 0,7.95495128 0,7.9549516 -7.999145,0 -7.99914541,0 0,-7.9549516 z m 12.02081541,0 0,-0.751301 -4.02167,0 -4.0216698,0 0,0.751301 0,0.7513009 4.0216698,0 4.02167,0 0,-0.7513009 z"
       id="path3427"
       inkscape:connector-curvature="0" />
    <path
       style="fill:#5aa02c"
       d="m -0.01400941,8.0049174 0,-7.95495128 7.99914541,0 7.999145,0 0,7.95495128 0,7.9549516 -7.999145,0 -7.99914541,0 0,-7.9549516 z m 12.02081541,0 0,-0.751301 -4.02167,0 -4.0216698,0 0,0.751301 0,0.7513009 4.0216698,0 4.02167,0 0,-0.7513009 z"
       id="path3429"
       inkscape:connector-curvature="0" />
    <path
       style="fill:#225500"
       d="m 3.9634662,8.0049174 0,-0.751301 4.0216698,0 4.02167,0 0,0.751301 0,0.7513009 -4.02167,0 -4.0216698,0 0,-0.7513009 z"
       id="path3431"
       inkscape:connector-curvature="0" />
    <path
       style="fill:#338000"
       d="m -0.01400941,8.0049174 0,-7.95495128 7.99914541,0 7.999145,0 0,7.95495128 0,7.9549516 -7.999145,0 -7.99914541,0 0,-7.9549516 z m 12.02081541,0 0,-0.751301 -4.02167,0 -4.0216698,0 0,0.751301 0,0.7513009 4.0216698,0 4.02167,0 0,-0.7513009 z"
       id="path3433"
       inkscape:connector-curvature="0" />
    <path
       style="fill:#338000"
       d="m 3.9634662,8.0049174 0,-0.751301 4.0216698,0 4.02167,0 0,0.751301 0,0.7513009 -4.02167,0 -4.0216698,0 0,-0.7513009 z"
       id="path3435"
       inkscape:connector-curvature="0" />
    <path
       style="fill:#338000"
       d="m -0.01400941,8.0049174 0,-7.95495128 7.99914541,0 7.999145,0 0,7.95495128 0,7.9549516 -7.999145,0 -7.99914541,0 0,-7.9549516 z"
       id="path3437"
       inkscape:connector-curvature="0" />
    <path
       style="fill:#225500"
       d="m -0.01400941,8.0049174 0,-7.95495128 7.99914541,0 7.999145,0 0,7.95495128 0,7.9549516 -7.999145,0 -7.99914541,0 0,-7.9549516 z"
       id="path3439"
       inkscape:connector-curvature="0" />
    <path
       sodipodi:type="star"
       style="fill:#800000"
       id="path3460"
       sodipodi:sides="5"
       sodipodi:cx="2.2980969"
       sodipodi:cy="4.3327379"
       sodipodi:r1="1.6062622"
       sodipodi:r2="1.2101313"
       sodipodi:arg1="1.7088024"
       sodipodi:arg2="2.3177035"
       inkscape:flatsided="false"
       inkscape:rounded="0"
       inkscape:randomized="0"
       d="M 2.0771259,5.9237282 1.475967,5.2207245 0.71669143,4.6142251 1.1995194,3.8252488 1.5417055,2.9157163 2.4412686,3.1311059 3.4120268,3.1754832 3.4851594,4.0975776 3.7429348,5.0345368 2.8885702,5.3890329 Z"
       inkscape:transform-center-x="0.068283754"
       inkscape:transform-center-y="0.086984341" />
    <path
       sodipodi:type="star"
       style="fill:#aa8800"
       id="path3462"
       sodipodi:sides="5"
       sodipodi:cx="2.2539029"
       sodipodi:cy="4.3327379"
       sodipodi:r1="1.1327856"
       sodipodi:r2="0.76520956"
       sodipodi:arg1="1.2120257"
       sodipodi:arg2="1.9481146"
       inkscape:flatsided="false"
       inkscape:rounded="0"
       inkscape:randomized="0"
       d="M 2.6516504,5.3933981 1.9719777,5.0441196 1.3680659,5.0387803 1.4902191,4.2844402 1.308678,3.7084359 2.0638455,3.5915066 2.5555588,3.2408557 2.9001248,3.9229295 3.3855614,4.2822196 2.8433474,4.8206937 Z"
       inkscape:transform-center-x="0.14560618"
       inkscape:transform-center-y="-0.05660009"
       transform="matrix(0.80848826,0,0,0.7946885,0.38320972,0.93054994)" />
    <path
       sodipodi:type="star"
       style="fill:#800000"
       id="path3460-0"
       sodipodi:sides="5"
       sodipodi:cx="6.4322446"
       sodipodi:cy="2.6989577"
       sodipodi:r1="1.6062622"
       sodipodi:r2="1.2101313"
       sodipodi:arg1="1.7088024"
       sodipodi:arg2="2.3177035"
       inkscape:flatsided="false"
       inkscape:rounded="0"
       inkscape:randomized="0"
       d="M 6.2112738,4.289948 5.6101148,3.5869442 4.8508393,2.9804449 5.3336673,2.1914686 5.6758534,1.281936 6.5754165,1.4973256 7.5461747,1.541703 7.6193073,2.4637973 7.8770827,3.4007566 7.022718,3.7552526 Z"
       inkscape:transform-center-x="0.068283754"
       inkscape:transform-center-y="0.086984341" />
    <path
       sodipodi:type="star"
       style="fill:#800000"
       id="path3460-8"
       sodipodi:sides="5"
       sodipodi:cx="12.177488"
       sodipodi:cy="2.1244336"
       sodipodi:r1="1.6062622"
       sodipodi:r2="1.2101313"
       sodipodi:arg1="1.7088024"
       sodipodi:arg2="2.3177035"
       inkscape:flatsided="false"
       inkscape:rounded="0"
       inkscape:randomized="0"
       d="m 11.956517,3.7154238 -0.601159,-0.7030037 -0.759275,-0.6064994 0.482828,-0.7889763 0.342186,-0.90953254 0.899563,0.2153896 0.970758,0.0443773 0.07313,0.9220944 0.257775,0.9369592 -0.854364,0.3544961 z"
       inkscape:transform-center-x="0.068283754"
       inkscape:transform-center-y="0.086984341" />
    <path
       sodipodi:type="star"
       style="fill:#800000"
       id="path3460-7"
       sodipodi:sides="5"
       sodipodi:cx="5.0180317"
       sodipodi:cy="7.7812881"
       sodipodi:r1="1.6062622"
       sodipodi:r2="1.2101313"
       sodipodi:arg1="1.7088024"
       sodipodi:arg2="2.3177035"
       inkscape:flatsided="false"
       inkscape:rounded="0"
       inkscape:randomized="0"
       d="M 4.7970606,9.3722784 4.1959017,8.6692747 3.4366261,8.0627753 3.9194541,7.273799 4.2616402,6.3642665 l 0.8995631,0.2153896 0.9707582,0.044377 0.073133,0.9220944 0.2577754,0.9369593 -0.8543646,0.354496 z"
       inkscape:transform-center-x="0.068283754"
       inkscape:transform-center-y="0.086984341" />
    <path
       sodipodi:type="star"
       style="fill:#800000"
       id="path3460-81"
       sodipodi:sides="5"
       sodipodi:cx="9.570032"
       sodipodi:cy="5.394802"
       sodipodi:r1="1.6062622"
       sodipodi:r2="1.2101313"
       sodipodi:arg1="1.7088024"
       sodipodi:arg2="2.3177035"
       inkscape:flatsided="false"
       inkscape:rounded="0"
       inkscape:randomized="0"
       d="M 9.3490612,6.9857924 8.7479022,6.2827886 7.9886267,5.6762893 8.4714546,4.887313 8.8136407,3.9777804 9.7132038,4.19317 l 0.9707582,0.044377 0.07313,0.9220943 0.257775,0.9369593 -0.854365,0.3544961 z"
       inkscape:transform-center-x="0.068283754"
       inkscape:transform-center-y="0.086984341" />
    <path
       sodipodi:type="star"
       style="fill:#800000"
       id="path3460-5"
       sodipodi:sides="5"
       sodipodi:cx="9.0838957"
       sodipodi:cy="9.3280843"
       sodipodi:r1="1.6062622"
       sodipodi:r2="1.2101313"
       sodipodi:arg1="1.7088024"
       sodipodi:arg2="2.3177035"
       inkscape:flatsided="false"
       inkscape:rounded="0"
       inkscape:randomized="0"
       d="M 8.8629247,10.919074 8.2617657,10.216071 7.5024902,9.6095712 7.9853182,8.8205949 8.3275043,7.9110623 l 0.8995631,0.2153896 0.9707586,0.044377 0.07313,0.9220943 0.257776,0.9369594 -0.8543651,0.354496 z"
       inkscape:transform-center-x="0.068283754"
       inkscape:transform-center-y="0.086984341" />
    <path
       sodipodi:type="star"
       style="fill:#800000"
       id="path3460-73"
       sodipodi:sides="5"
       sodipodi:cx="13.98945"
       sodipodi:cy="9.946803"
       sodipodi:r1="1.6062622"
       sodipodi:r2="1.2101313"
       sodipodi:arg1="1.7088024"
       sodipodi:arg2="2.3177035"
       inkscape:flatsided="false"
       inkscape:rounded="0"
       inkscape:randomized="0"
       d="m 13.76848,11.537793 -0.601159,-0.703003 -0.759276,-0.6065 0.482828,-0.788976 0.342186,-0.9095326 0.899563,0.2153896 0.970758,0.044377 0.07313,0.9220943 0.257775,0.9369593 -0.854364,0.354496 z"
       inkscape:transform-center-x="0.068283754"
       inkscape:transform-center-y="0.086984341" />
    <path
       sodipodi:type="star"
       style="fill:#800000"
       id="path3460-2"
       sodipodi:sides="5"
       sodipodi:cx="2.9850991"
       sodipodi:cy="11.847151"
       sodipodi:r1="1.6062622"
       sodipodi:r2="1.2101313"
       sodipodi:arg1="1.7088024"
       sodipodi:arg2="2.3177035"
       inkscape:flatsided="false"
       inkscape:rounded="0"
       inkscape:randomized="0"
       d="m 2.7641281,13.438141 -0.601159,-0.703004 -0.7592755,-0.606499 0.482828,-0.788976 0.3421861,-0.909533 0.8995631,0.21539 0.9707582,0.04438 0.073133,0.922094 0.2577754,0.93696 -0.8543647,0.354496 z"
       inkscape:transform-center-x="0.068283754"
       inkscape:transform-center-y="0.086984341" />
    <path
       sodipodi:type="star"
       style="fill:#800000"
       id="path3460-29"
       sodipodi:sides="5"
       sodipodi:cx="6.4322448"
       sodipodi:cy="11.93554"
       sodipodi:r1="1.6062622"
       sodipodi:r2="1.2101313"
       sodipodi:arg1="1.7088024"
       sodipodi:arg2="2.3177035"
       inkscape:flatsided="false"
       inkscape:rounded="0"
       inkscape:randomized="0"
       d="m 6.2112738,13.52653 -0.601159,-0.703003 -0.7592755,-0.6065 0.482828,-0.788976 0.3421861,-0.909532 0.8995631,0.215389 0.9707582,0.04438 0.073133,0.922095 0.2577754,0.936959 -0.8543647,0.354496 z"
       inkscape:transform-center-x="0.068283754"
       inkscape:transform-center-y="0.086984341" />
    <path
       sodipodi:type="star"
       style="fill:#800000"
       id="path3460-813"
       sodipodi:sides="5"
       sodipodi:cx="10.498108"
       sodipodi:cy="13.570724"
       sodipodi:r1="1.6062622"
       sodipodi:r2="1.2101313"
       sodipodi:arg1="1.7088024"
       sodipodi:arg2="2.3177035"
       inkscape:flatsided="false"
       inkscape:rounded="0"
       inkscape:randomized="0"
       d="M 10.277137,15.161714 9.675978,14.45871 8.9167024,13.852211 l 0.482828,-0.788977 0.3421861,-0.909532 0.8995635,0.215389 0.970758,0.04438 0.07313,0.922094 0.257776,0.936959 -0.854365,0.354497 z"
       inkscape:transform-center-x="0.068283754"
       inkscape:transform-center-y="0.086984341" />
    <path
       sodipodi:type="star"
       style="fill:#aa8800"
       id="path3462-1"
       sodipodi:sides="5"
       sodipodi:cx="2.2539029"
       sodipodi:cy="4.3327379"
       sodipodi:r1="1.1327856"
       sodipodi:r2="0.76520956"
       sodipodi:arg1="1.2120257"
       sodipodi:arg2="1.9481146"
       inkscape:flatsided="false"
       inkscape:rounded="0"
       inkscape:randomized="0"
       d="M 2.6516504,5.3933981 1.9719777,5.0441196 1.3680659,5.0387803 1.4902191,4.2844402 1.308678,3.7084359 2.0638455,3.5915066 2.5555588,3.2408557 2.9001248,3.9229295 3.3855614,4.2822196 2.8433474,4.8206937 Z"
       inkscape:transform-center-x="0.14560618"
       inkscape:transform-center-y="-0.05660009"
       transform="matrix(0.80848826,0,0,0.7946885,4.5989248,-0.64482901)" />
    <path
       sodipodi:type="star"
       style="fill:#aa8800"
       id="path3462-2"
       sodipodi:sides="5"
       sodipodi:cx="2.2539029"
       sodipodi:cy="4.3327379"
       sodipodi:r1="1.1327856"
       sodipodi:r2="0.76520956"
       sodipodi:arg1="1.2120257"
       sodipodi:arg2="1.9481146"
       inkscape:flatsided="false"
       inkscape:rounded="0"
       inkscape:randomized="0"
       d="M 2.6516504,5.3933981 1.9719777,5.0441196 1.3680659,5.0387803 1.4902191,4.2844402 1.308678,3.7084359 2.0638455,3.5915066 2.5555588,3.2408557 2.9001248,3.9229295 3.3855614,4.2822196 2.8433474,4.8206937 Z"
       inkscape:transform-center-x="0.14560618"
       inkscape:transform-center-y="-0.05660009"
       transform="matrix(0.80848826,0,0,0.7946885,7.6483228,2.0510155)" />
    <path
       sodipodi:type="star"
       style="fill:#aa8800"
       id="path3462-4"
       sodipodi:sides="5"
       sodipodi:cx="2.2539029"
       sodipodi:cy="4.3327379"
       sodipodi:r1="1.1327856"
       sodipodi:r2="0.76520956"
       sodipodi:arg1="1.2120257"
       sodipodi:arg2="1.9481146"
       inkscape:flatsided="false"
       inkscape:rounded="0"
       inkscape:randomized="0"
       d="M 2.6516504,5.3933981 1.9719777,5.0441196 1.3680659,5.0387803 1.4902191,4.2844402 1.308678,3.7084359 2.0638455,3.5915066 2.5555588,3.2408557 2.9001248,3.9229295 3.3855614,4.2822196 2.8433474,4.8206937 Z"
       inkscape:transform-center-x="0.14560618"
       inkscape:transform-center-y="-0.05660009"
       transform="matrix(0.80848826,0,0,0.7946885,10.344167,-1.3077416)" />
    <path
       sodipodi:type="star"
       style="fill:#aa8800"
       id="path3462-25"
       sodipodi:sides="5"
       sodipodi:cx="2.2539029"
       sodipodi:cy="4.3327379"
       sodipodi:r1="1.1327856"
       sodipodi:r2="0.76520956"
       sodipodi:arg1="1.2120257"
       sodipodi:arg2="1.9481146"
       inkscape:flatsided="false"
       inkscape:rounded="0"
       inkscape:randomized="0"
       d="M 2.6516504,5.3933981 1.9719777,5.0441196 1.3680659,5.0387803 1.4902191,4.2844402 1.308678,3.7084359 2.0638455,3.5915066 2.5555588,3.2408557 2.9001248,3.9229295 3.3855614,4.2822196 2.8433474,4.8206937 Z"
       inkscape:transform-center-x="0.14560618"
       inkscape:transform-center-y="-0.05660009"
       transform="matrix(0.80848826,0,0,0.7946885,3.1847112,4.3049184)" />
    <path
       sodipodi:type="star"
       style="fill:#aa8800"
       id="path3462-40"
       sodipodi:sides="5"
       sodipodi:cx="2.2539029"
       sodipodi:cy="4.3327379"
       sodipodi:r1="1.1327856"
       sodipodi:r2="0.76520956"
       sodipodi:arg1="1.2120257"
       sodipodi:arg2="1.9481146"
       inkscape:flatsided="false"
       inkscape:rounded="0"
       inkscape:randomized="0"
       d="M 2.6516504,5.3933981 1.9719777,5.0441196 1.3680659,5.0387803 1.4902191,4.2844402 1.308678,3.7084359 2.0638455,3.5915066 2.5555588,3.2408557 2.9001248,3.9229295 3.3855614,4.2822196 2.8433474,4.8206937 Z"
       inkscape:transform-center-x="0.14560618"
       inkscape:transform-center-y="-0.05660009"
       transform="matrix(0.80848826,0,0,0.7946885,7.206381,5.8517145)" />
    <path
       sodipodi:type="star"
       style="fill:#aa8800"
       id="path3462-6"
       sodipodi:sides="5"
       sodipodi:cx="2.2539029"
       sodipodi:cy="4.3327379"
       sodipodi:r1="1.1327856"
       sodipodi:r2="0.76520956"
       sodipodi:arg1="1.2120257"
       sodipodi:arg2="1.9481146"
       inkscape:flatsided="false"
       inkscape:rounded="0"
       inkscape:randomized="0"
       d="M 2.6516504,5.3933981 1.9719777,5.0441196 1.3680659,5.0387803 1.4902191,4.2844402 1.308678,3.7084359 2.0638455,3.5915066 2.5555588,3.2408557 2.9001248,3.9229295 3.3855614,4.2822196 2.8433474,4.8206937 Z"
       inkscape:transform-center-x="0.14560618"
       inkscape:transform-center-y="-0.05660009"
       transform="matrix(0.80848826,0,0,0.7946885,12.111934,6.3820446)" />
    <path
       sodipodi:type="star"
       style="fill:#aa8800"
       id="path3462-0"
       sodipodi:sides="5"
       sodipodi:cx="2.2539029"
       sodipodi:cy="4.3327379"
       sodipodi:r1="1.1327856"
       sodipodi:r2="0.76520956"
       sodipodi:arg1="1.2120257"
       sodipodi:arg2="1.9481146"
       inkscape:flatsided="false"
       inkscape:rounded="0"
       inkscape:randomized="0"
       d="M 2.6516504,5.3933981 1.9719777,5.0441196 1.3680659,5.0387803 1.4902191,4.2844402 1.308678,3.7084359 2.0638455,3.5915066 2.5555588,3.2408557 2.9001248,3.9229295 3.3855614,4.2822196 2.8433474,4.8206937 Z"
       inkscape:transform-center-x="0.14560618"
       inkscape:transform-center-y="-0.05660009"
       transform="matrix(0.80848826,0,0,0.7946885,4.643119,8.4591708)" />
    <path
       sodipodi:type="star"
       style="fill:#aa8800"
       id="path3462-9"
       sodipodi:sides="5"
       sodipodi:cx="2.2539029"
       sodipodi:cy="4.3327379"
       sodipodi:r1="1.1327856"
       sodipodi:r2="0.76520956"
       sodipodi:arg1="1.2120257"
       sodipodi:arg2="1.9481146"
       inkscape:flatsided="false"
       inkscape:rounded="0"
       inkscape:randomized="0"
       d="M 2.6516504,5.3933981 1.9719777,5.0441196 1.3680659,5.0387803 1.4902191,4.2844402 1.308678,3.7084359 2.0638455,3.5915066 2.5555588,3.2408557 2.9001248,3.9229295 3.3855614,4.2822196 2.8433474,4.8206937 Z"
       inkscape:transform-center-x="0.14560618"
       inkscape:transform-center-y="-0.05660009"
       transform="matrix(0.80848826,0,0,0.7946885,1.1075851,8.4149766)" />
    <path
       sodipodi:type="star"
       style="fill:#aa8800"
       id="path3462-62"
       sodipodi:sides="5"
       sodipodi:cx="2.2539029"
       sodipodi:cy="4.3327379"
       sodipodi:r1="1.1327856"
       sodipodi:r2="0.76520956"
       sodipodi:arg1="1.2120257"
       sodipodi:arg2="1.9481146"
       inkscape:flatsided="false"
       inkscape:rounded="0"
       inkscape:randomized="0"
       d="M 2.6516504,5.3933981 1.9719777,5.0441196 1.3680659,5.0387803 1.4902191,4.2844402 1.308678,3.7084359 2.0638455,3.5915066 2.5555588,3.2408557 2.9001248,3.9229295 3.3855614,4.2822196 2.8433474,4.8206937 Z"
       inkscape:transform-center-x="0.14560618"
       inkscape:transform-center-y="-0.05660009"
       transform="matrix(0.80848826,0,0,0.7946885,8.6647888,10.182744)" />
  </g>
</svg>
